<mxfile host="app.diagrams.net" modified="2024-03-12T15:47:42.441Z" agent="Mozilla/5.0 (X11; Linux x86_64) AppleWebKit/537.36 (KHTML, like Gecko) Chrome/122.0.0.0 Safari/537.36" etag="0mC_topdwhOKDaRk_6QH" version="24.0.0" type="google">
  <diagram name="PÃ¡gina-1" id="GBJqVmvnFpaByWBmFzSr">
    <mxGraphModel grid="1" page="1" gridSize="10" guides="1" tooltips="1" connect="1" arrows="1" fold="1" pageScale="1" pageWidth="827" pageHeight="1169" math="0" shadow="0">
      <root>
        <mxCell id="0" />
        <mxCell id="1" parent="0" />
        <mxCell id="0c8S-kHDC3mvuFu8LvDb-1" value="GymPackage" style="shape=folder;fontStyle=1;spacingTop=10;tabWidth=40;tabHeight=14;tabPosition=left;html=1;whiteSpace=wrap;" vertex="1" parent="1">
          <mxGeometry x="80" y="130" width="70" height="50" as="geometry" />
        </mxCell>
        <mxCell id="0c8S-kHDC3mvuFu8LvDb-2" value="User" style="swimlane;fontStyle=1;align=center;verticalAlign=top;childLayout=stackLayout;horizontal=1;startSize=26;horizontalStack=0;resizeParent=1;resizeParentMax=0;resizeLast=0;collapsible=1;marginBottom=0;whiteSpace=wrap;html=1;" vertex="1" parent="1">
          <mxGeometry x="20" y="200" width="160" height="550" as="geometry" />
        </mxCell>
        <mxCell id="0c8S-kHDC3mvuFu8LvDb-3" value="&lt;div&gt;- name:String&lt;/div&gt;&lt;div&gt;- id:int&lt;/div&gt;&lt;div&gt;- contact_number:String&lt;/div&gt;&lt;div&gt;- weight:double&lt;/div&gt;&lt;div&gt;- height:double&lt;/div&gt;&lt;div&gt;- age:int&lt;/div&gt;&lt;div&gt;- bmi:double&lt;/div&gt;&lt;div&gt;- goal:Goal&lt;/div&gt;&lt;div&gt;- workout:Workout&lt;/div&gt;" style="text;strokeColor=none;fillColor=none;align=left;verticalAlign=top;spacingLeft=4;spacingRight=4;overflow=hidden;rotatable=0;points=[[0,0.5],[1,0.5]];portConstraint=eastwest;whiteSpace=wrap;html=1;" vertex="1" parent="0c8S-kHDC3mvuFu8LvDb-2">
          <mxGeometry y="26" width="160" height="134" as="geometry" />
        </mxCell>
        <mxCell id="0c8S-kHDC3mvuFu8LvDb-4" value="" style="line;strokeWidth=1;fillColor=none;align=left;verticalAlign=middle;spacingTop=-1;spacingLeft=3;spacingRight=3;rotatable=0;labelPosition=right;points=[];portConstraint=eastwest;strokeColor=inherit;" vertex="1" parent="0c8S-kHDC3mvuFu8LvDb-2">
          <mxGeometry y="160" width="160" height="8" as="geometry" />
        </mxCell>
        <mxCell id="0c8S-kHDC3mvuFu8LvDb-5" value="&lt;div&gt;+ User(String name, int id, String contact_number, double weight, double height, int age)&lt;/div&gt;&lt;div&gt;+ getName(): String&lt;/div&gt;&lt;div&gt;+ getId(): int&lt;/div&gt;&lt;div&gt;+ getContact_number(): String&lt;/div&gt;&lt;div&gt;+ getWeight(): double&lt;/div&gt;&lt;div&gt;+ getHeigth(): double&lt;/div&gt;&lt;div&gt;+ getAge(): int&lt;/div&gt;&lt;div&gt;+ getBmi(): double&lt;/div&gt;&lt;div&gt;+ getGoal(): Goal&lt;/div&gt;&lt;div&gt;+ getWorkout(): Workout&lt;/div&gt;&lt;div&gt;+ setContact_number(String contact_number)&lt;/div&gt;&lt;div&gt;+ setWeight(double weight)&lt;/div&gt;&lt;div&gt;+ setHeight(double height)&lt;/div&gt;&lt;div&gt;+ setAge(int age)&lt;/div&gt;&lt;div&gt;+ setGoal(Goal goal)&lt;/div&gt;&lt;div&gt;+ setWorkout(Workout workout)&lt;/div&gt;&lt;div&gt;+ calculateBMI()&lt;/div&gt;&lt;div&gt;+toString(): String&lt;/div&gt;" style="text;strokeColor=none;fillColor=none;align=left;verticalAlign=top;spacingLeft=4;spacingRight=4;overflow=hidden;rotatable=0;points=[[0,0.5],[1,0.5]];portConstraint=eastwest;whiteSpace=wrap;html=1;" vertex="1" parent="0c8S-kHDC3mvuFu8LvDb-2">
          <mxGeometry y="168" width="160" height="382" as="geometry" />
        </mxCell>
        <mxCell id="0c8S-kHDC3mvuFu8LvDb-6" value="Exercise" style="swimlane;fontStyle=1;align=center;verticalAlign=top;childLayout=stackLayout;horizontal=1;startSize=26;horizontalStack=0;resizeParent=1;resizeParentMax=0;resizeLast=0;collapsible=1;marginBottom=0;whiteSpace=wrap;html=1;" vertex="1" parent="1">
          <mxGeometry x="220" y="200" width="160" height="350" as="geometry" />
        </mxCell>
        <mxCell id="0c8S-kHDC3mvuFu8LvDb-7" value="&lt;div&gt;- exercise_name:String&lt;/div&gt;&lt;div&gt;- exercise_type:String&lt;/div&gt;&lt;div&gt;- duration:int&lt;/div&gt;&lt;div&gt;- calories_burnt:int&lt;/div&gt;" style="text;strokeColor=none;fillColor=none;align=left;verticalAlign=top;spacingLeft=4;spacingRight=4;overflow=hidden;rotatable=0;points=[[0,0.5],[1,0.5]];portConstraint=eastwest;whiteSpace=wrap;html=1;" vertex="1" parent="0c8S-kHDC3mvuFu8LvDb-6">
          <mxGeometry y="26" width="160" height="64" as="geometry" />
        </mxCell>
        <mxCell id="0c8S-kHDC3mvuFu8LvDb-8" value="" style="line;strokeWidth=1;fillColor=none;align=left;verticalAlign=middle;spacingTop=-1;spacingLeft=3;spacingRight=3;rotatable=0;labelPosition=right;points=[];portConstraint=eastwest;strokeColor=inherit;" vertex="1" parent="0c8S-kHDC3mvuFu8LvDb-6">
          <mxGeometry y="90" width="160" height="8" as="geometry" />
        </mxCell>
        <mxCell id="0c8S-kHDC3mvuFu8LvDb-9" value="&lt;div&gt;+ Exercise(String exercise_name, String exercise_type, int duration, double calories_burnt)&lt;/div&gt;&lt;div&gt;+ getExercise_name(): String&lt;/div&gt;&lt;div&gt;+ getExercise_type(): String&lt;/div&gt;&lt;div&gt;+ getDuration(): int&lt;/div&gt;&lt;div&gt;+ getCalories_burnt(): double&lt;/div&gt;&lt;div&gt;+ setDuration(int Duration)&lt;/div&gt;&lt;div&gt;+ setCalories_burnt(double calories_burnt)&lt;/div&gt;&lt;div&gt;+ setExercise_type(String exercise_type)&lt;/div&gt;&lt;div&gt;+ toString(): String&lt;/div&gt;" style="text;strokeColor=none;fillColor=none;align=left;verticalAlign=top;spacingLeft=4;spacingRight=4;overflow=hidden;rotatable=0;points=[[0,0.5],[1,0.5]];portConstraint=eastwest;whiteSpace=wrap;html=1;" vertex="1" parent="0c8S-kHDC3mvuFu8LvDb-6">
          <mxGeometry y="98" width="160" height="252" as="geometry" />
        </mxCell>
        <mxCell id="0c8S-kHDC3mvuFu8LvDb-11" value="Workout" style="swimlane;fontStyle=1;align=center;verticalAlign=top;childLayout=stackLayout;horizontal=1;startSize=26;horizontalStack=0;resizeParent=1;resizeParentMax=0;resizeLast=0;collapsible=1;marginBottom=0;whiteSpace=wrap;html=1;" vertex="1" parent="1">
          <mxGeometry x="410" y="200" width="160" height="360" as="geometry" />
        </mxCell>
        <mxCell id="0c8S-kHDC3mvuFu8LvDb-12" value="&lt;div&gt;- workout_name:String&lt;/div&gt;&lt;div&gt;- exercises:ArrayList&amp;lt;Exercise&amp;gt;&lt;/div&gt;&lt;div&gt;- total_duration:int&lt;/div&gt;&lt;div&gt;- total_calories_burned:int&lt;/div&gt;" style="text;strokeColor=none;fillColor=none;align=left;verticalAlign=top;spacingLeft=4;spacingRight=4;overflow=hidden;rotatable=0;points=[[0,0.5],[1,0.5]];portConstraint=eastwest;whiteSpace=wrap;html=1;" vertex="1" parent="0c8S-kHDC3mvuFu8LvDb-11">
          <mxGeometry y="26" width="160" height="94" as="geometry" />
        </mxCell>
        <mxCell id="0c8S-kHDC3mvuFu8LvDb-13" value="" style="line;strokeWidth=1;fillColor=none;align=left;verticalAlign=middle;spacingTop=-1;spacingLeft=3;spacingRight=3;rotatable=0;labelPosition=right;points=[];portConstraint=eastwest;strokeColor=inherit;" vertex="1" parent="0c8S-kHDC3mvuFu8LvDb-11">
          <mxGeometry y="120" width="160" height="8" as="geometry" />
        </mxCell>
        <mxCell id="0c8S-kHDC3mvuFu8LvDb-14" value="&lt;div&gt;+ Workout(String workout_name)&lt;/div&gt;&lt;div&gt;+ getWorkout_name(): String&lt;/div&gt;&lt;div&gt;+ getExercises(): String&lt;/div&gt;&lt;div&gt;+ getTotal_duration(): int&lt;/div&gt;&lt;div&gt;+ getTotal_calories_burnt(): int&lt;/div&gt;&lt;div&gt;+ setWorkout_name(String workout_name)&lt;/div&gt;&lt;div&gt;+ addExercise(Exercise exercise)&lt;/div&gt;&lt;div&gt;+ removeExercise(Exercise exercise)&lt;/div&gt;&lt;div&gt;+ toString(): String&lt;/div&gt;" style="text;strokeColor=none;fillColor=none;align=left;verticalAlign=top;spacingLeft=4;spacingRight=4;overflow=hidden;rotatable=0;points=[[0,0.5],[1,0.5]];portConstraint=eastwest;whiteSpace=wrap;html=1;" vertex="1" parent="0c8S-kHDC3mvuFu8LvDb-11">
          <mxGeometry y="128" width="160" height="232" as="geometry" />
        </mxCell>
        <mxCell id="0c8S-kHDC3mvuFu8LvDb-15" value="Goal" style="swimlane;fontStyle=1;align=center;verticalAlign=top;childLayout=stackLayout;horizontal=1;startSize=26;horizontalStack=0;resizeParent=1;resizeParentMax=0;resizeLast=0;collapsible=1;marginBottom=0;whiteSpace=wrap;html=1;" vertex="1" parent="1">
          <mxGeometry x="600" y="200" width="160" height="220" as="geometry" />
        </mxCell>
        <mxCell id="0c8S-kHDC3mvuFu8LvDb-16" value="- target_weight:int&#xa;- deadline:String" style="text;strokeColor=none;fillColor=none;align=left;verticalAlign=top;spacingLeft=4;spacingRight=4;overflow=hidden;rotatable=0;points=[[0,0.5],[1,0.5]];portConstraint=eastwest;whiteSpace=wrap;html=1;" vertex="1" parent="0c8S-kHDC3mvuFu8LvDb-15">
          <mxGeometry y="26" width="160" height="44" as="geometry" />
        </mxCell>
        <mxCell id="0c8S-kHDC3mvuFu8LvDb-17" value="" style="line;strokeWidth=1;fillColor=none;align=left;verticalAlign=middle;spacingTop=-1;spacingLeft=3;spacingRight=3;rotatable=0;labelPosition=right;points=[];portConstraint=eastwest;strokeColor=inherit;" vertex="1" parent="0c8S-kHDC3mvuFu8LvDb-15">
          <mxGeometry y="70" width="160" height="8" as="geometry" />
        </mxCell>
        <mxCell id="0c8S-kHDC3mvuFu8LvDb-18" value="&lt;div&gt;+ Goal(int target_weight, String deadline)&lt;/div&gt;&lt;div&gt;+ getTarget_weight(): int&lt;/div&gt;&lt;div&gt;+ getDeadline(): String&lt;/div&gt;&lt;div&gt;+ setTarget_weight(int target_weight)&lt;/div&gt;&lt;div&gt;+ setDeadline(String deadline)&lt;/div&gt;&lt;div&gt;+ toString(): String&lt;/div&gt;" style="text;strokeColor=none;fillColor=none;align=left;verticalAlign=top;spacingLeft=4;spacingRight=4;overflow=hidden;rotatable=0;points=[[0,0.5],[1,0.5]];portConstraint=eastwest;whiteSpace=wrap;html=1;" vertex="1" parent="0c8S-kHDC3mvuFu8LvDb-15">
          <mxGeometry y="78" width="160" height="142" as="geometry" />
        </mxCell>
      </root>
    </mxGraphModel>
  </diagram>
</mxfile>
